<?xml version="1.0" standalone="no"?>
<!DOCTYPE svg PUBLIC "-//W3C//DTD SVG 20010904//EN"
 "http://www.w3.org/TR/2001/REC-SVG-20010904/DTD/svg10.dtd">
<svg version="1.0" xmlns="http://www.w3.org/2000/svg"
 width="260.000000pt" height="260.000000pt" viewBox="0 0 260.000000 260.000000"
 preserveAspectRatio="xMidYMid meet">
<metadata>
Created by potrace 1.11, written by Peter Selinger 2001-2013
</metadata>
<g transform="translate(0.000000,260.000000) scale(0.100000,-0.100000)"
fill="#000000" stroke="none">
<path d="M234 2445 c-7 -17 2 -599 10 -660 3 -22 8 -67 11 -99 18 -184 61
-398 110 -552 54 -168 184 -396 323 -569 130 -160 393 -410 553 -524 l56 -40
39 26 c123 83 393 328 511 465 123 141 257 343 321 481 31 66 88 227 96 269 2
13 11 50 19 83 8 33 18 80 22 105 4 25 9 54 11 65 7 34 34 247 40 310 7 86 14
609 7 634 l-5 21 -1059 0 c-937 0 -1060 -2 -1065 -15z m1017 -94 c5 -26 3
-990 -2 -989 -4 2 -42 35 -84 73 -43 39 -87 78 -98 87 -11 10 -59 54 -106 97
-47 44 -106 98 -131 120 l-44 40 -26 -28 c-32 -36 -213 -231 -301 -324 l-66
-70 -7 45 c-7 49 -13 87 -21 133 -5 33 -12 87 -20 155 -14 125 -21 390 -16
611 l1 56 460 0 c253 0 460 -3 461 -6z m953 -276 c72 -51 73 -162 2 -208 -112
-74 -246 54 -176 167 37 60 118 79 174 41z m-657 -5 c105 -63 64 -220 -59
-229 -48 -3 -91 22 -115 68 -60 110 66 227 174 161z m351 -14 c34 -32 37 -39
37 -90 0 -49 -4 -59 -33 -88 -29 -29 -39 -33 -87 -33 -48 0 -58 4 -87 33 -29
29 -33 39 -33 88 0 51 3 58 37 90 31 28 45 34 83 34 38 0 52 -6 83 -34z m-220
-442 c50 -33 63 -121 25 -172 -76 -100 -229 -48 -225 77 3 70 69 126 137 116
22 -3 50 -13 63 -21z m353 10 c61 -31 87 -116 53 -174 -64 -107 -234 -63 -234
62 0 90 102 153 181 112z m-190 -457 c44 -30 61 -63 56 -113 -6 -55 -33 -90
-83 -107 -123 -43 -221 116 -126 205 48 45 101 50 153 15z"/>
</g>
</svg>
